=== The Descent Part 2 2009 DVDRip XviD-Dubby ===
 
http://www.imdb.com/title/tt1073105/
Genre: Adventure | Horror | Thriller 
Ratings: 6.0/10   3,562 votes
Director: Jon Harris

Source: KART3LDVD DVDR
Size: 700 MiB

=== Video Data ===

General
Complete name                    : The Decent Part 2 2009 DVDRip XviD-Dubby.avi
Format                           : AVI
Format/Info                      : Audio Video Interleave
File size                        : 699 MiB
Duration                         : 1h 33mn
Overall bit rate                 : 1 042 Kbps
Writing application              : VirtualDubMod 1.5.10.2 (build 2540/release)
Writing library                  : VirtualDubMod build 2540/release

Video
ID                               : 0
Format                           : MPEG-4 Visual
Format profile                   : Advanced Simple@L5
Format settings, BVOP            : Yes
Format settings, QPel            : No
Format settings, GMC             : No warppoints
Format settings, Matrix          : Default (H.263)
Muxing mode                      : Packed bitstream
Codec ID                         : XVID
Codec ID/Hint                    : XviD
Duration                         : 1h 33mn
Bit rate                         : 905 Kbps
Width                            : 640 pixels
Height                           : 272 pixels
Display aspect ratio             : 2.35:1
Frame rate                       : 23.976 fps
Resolution                       : 8 bits
Colorimetry                      : 4:2:0
Scan type                        : Progressive
Bits/(Pixel*Frame)               : 0.217
Stream size                      : 607 MiB (87%)
Writing library                  : XviD 1.2.1 (UTC 2008-12-04)

=== Audio Data ===

ID                               : 1
Format                           : MPEG Audio
Format version                   : Version 1
Format profile                   : Layer 3
Mode                             : Joint stereo
Codec ID                         : 55
Codec ID/Hint                    : MP3
Duration                         : 1h 33mn
Bit rate mode                    : Constant
Bit rate                         : 128 Kbps
Channel(s)                       : 2 channels
Sampling rate                    : 48.0 KHz
Stream size                      : 85.8 MiB (12%)
Alignment                        : Aligned on interleaves
Interleave, duration             : 42 ms (1.00 video frame)
Interleave, preload duration     : 504 ms

=== Cast ===

Michael J. Reynolds	... 	Ed Oswald
Shauna Macdonald	... 	Sarah
Jessika Williams	... 	Susanna Small
Douglas Hodge	        ... 	Dan
Joshua Dallas	        ... 	Greg
Anna Skellern	        ... 	Cath
Gavan O'Herlihy 	... 	Vaines
Krysten Cummings	... 	Rios
Doug Ballard	        ... 	Dr. Roger Payne
Josh Cole	        ... 	Lynch
Saskia Mulder	        ... 	Rebecca
Natalie Jackson Mendoza	... 	Juno (as Natalie Mendoza)
Alex Reid	        ... 	Beth
Nora-Jane Noone	        ... 	Holly
MyAnna Buring	        ... 	Sam

=== Plot ===

Distraught, confused, and half-wild with fear, Sarah Carter emerges 
alone from the Appalachian cave system where she encountered unspeakable 
terrors... 